<?xml version="1.0" encoding="UTF-8" standalone="no"?>
<!-- Created with Inkscape (http://www.inkscape.org/) -->

<svg
   version="1.1"
   id="svg1"
   width="880"
   height="880"
   viewBox="0 0 880 880"
   sodipodi:docname="lighthouse-by-the-sea-.svg"
   inkscape:version="1.3.2 (091e20e, 2023-11-25, custom)"
   xmlns:inkscape="http://www.inkscape.org/namespaces/inkscape"
   xmlns:sodipodi="http://sodipodi.sourceforge.net/DTD/sodipodi-0.dtd"
   xmlns="http://www.w3.org/2000/svg"
   xmlns:svg="http://www.w3.org/2000/svg">
  <defs
     id="defs1">
    <clipPath
       clipPathUnits="userSpaceOnUse"
       id="clipPath4">
      <path
         d="M 0,660 H 660 V 0 H 0 Z"
         transform="translate(-659.62892,-611.20262)"
         id="path4" />
    </clipPath>
    <clipPath
       clipPathUnits="userSpaceOnUse"
       id="clipPath6">
      <path
         d="M 0,660 H 660 V 0 H 0 Z"
         transform="translate(-9.9999752e-4,-353.92481)"
         id="path6" />
    </clipPath>
    <clipPath
       clipPathUnits="userSpaceOnUse"
       id="clipPath8">
      <path
         d="M 0,660 H 660 V 0 H 0 Z"
         id="path8" />
    </clipPath>
    <clipPath
       clipPathUnits="userSpaceOnUse"
       id="clipPath10">
      <path
         d="M 0,660 H 660 V 0 H 0 Z"
         transform="translate(-659.62892,-244.7803)"
         id="path10" />
    </clipPath>
    <clipPath
       clipPathUnits="userSpaceOnUse"
       id="clipPath12">
      <path
         d="M 0,660 H 660 V 0 H 0 Z"
         transform="translate(-9.9999752e-4,-313.19921)"
         id="path12" />
    </clipPath>
    <clipPath
       clipPathUnits="userSpaceOnUse"
       id="clipPath14">
      <path
         d="M 0,660 H 660 V 0 H 0 Z"
         transform="translate(-638.21681,-289.4629)"
         id="path14" />
    </clipPath>
    <clipPath
       clipPathUnits="userSpaceOnUse"
       id="clipPath16">
      <path
         d="M 0,660 H 660 V 0 H 0 Z"
         transform="translate(-9.9999752e-4,-370.37301)"
         id="path16" />
    </clipPath>
    <clipPath
       clipPathUnits="userSpaceOnUse"
       id="clipPath18">
      <path
         d="M 0,660 H 660 V 0 H 0 Z"
         transform="translate(-399.76271,-126.82521)"
         id="path18" />
    </clipPath>
    <clipPath
       clipPathUnits="userSpaceOnUse"
       id="clipPath20">
      <path
         d="M 0,660 H 660 V 0 H 0 Z"
         transform="translate(-357.02831,-200.15431)"
         id="path20" />
    </clipPath>
    <clipPath
       clipPathUnits="userSpaceOnUse"
       id="clipPath22">
      <path
         d="M 0,660 H 660 V 0 H 0 Z"
         transform="translate(-390.91501,-110.4648)"
         id="path22" />
    </clipPath>
    <clipPath
       clipPathUnits="userSpaceOnUse"
       id="clipPath24">
      <path
         d="M 0,660 H 660 V 0 H 0 Z"
         transform="translate(-335.51371,-436.51611)"
         id="path24" />
    </clipPath>
    <clipPath
       clipPathUnits="userSpaceOnUse"
       id="clipPath26">
      <path
         d="M 0,660 H 660 V 0 H 0 Z"
         transform="translate(-267.9292,-500.53912)"
         id="path26" />
    </clipPath>
    <clipPath
       clipPathUnits="userSpaceOnUse"
       id="clipPath28">
      <path
         d="M 0,660 H 660 V 0 H 0 Z"
         transform="translate(-282.2881,-437.14891)"
         id="path28" />
    </clipPath>
    <clipPath
       clipPathUnits="userSpaceOnUse"
       id="clipPath30">
      <path
         d="M 0,660 H 660 V 0 H 0 Z"
         transform="translate(-224.32861,-459.96481)"
         id="path30" />
    </clipPath>
    <clipPath
       clipPathUnits="userSpaceOnUse"
       id="clipPath32">
      <path
         d="M 0,660 H 660 V 0 H 0 Z"
         transform="translate(-272.1655,-459.71731)"
         id="path32" />
    </clipPath>
    <clipPath
       clipPathUnits="userSpaceOnUse"
       id="clipPath34">
      <path
         d="M 0,660 H 660 V 0 H 0 Z"
         transform="translate(-370.92681,-265.81251)"
         id="path34" />
    </clipPath>
    <clipPath
       clipPathUnits="userSpaceOnUse"
       id="clipPath36">
      <path
         d="M 0,660 H 660 V 0 H 0 Z"
         transform="translate(-292.1113,-357.13921)"
         id="path36" />
    </clipPath>
    <clipPath
       clipPathUnits="userSpaceOnUse"
       id="clipPath38">
      <path
         d="M 0,660 H 660 V 0 H 0 Z"
         transform="translate(-309.91851,-568.81151)"
         id="path38" />
    </clipPath>
    <clipPath
       clipPathUnits="userSpaceOnUse"
       id="clipPath40">
      <path
         d="M 0,660 H 660 V 0 H 0 Z"
         transform="translate(-313.63281,-568.81151)"
         id="path40" />
    </clipPath>
    <clipPath
       clipPathUnits="userSpaceOnUse"
       id="clipPath42">
      <path
         d="M 0,660 H 660 V 0 H 0 Z"
         transform="translate(-265.5322,-603.35062)"
         id="path42" />
    </clipPath>
    <clipPath
       clipPathUnits="userSpaceOnUse"
       id="clipPath44">
      <path
         d="M 0,660 H 660 V 0 H 0 Z"
         transform="translate(-265.5322,-603.35062)"
         id="path44" />
    </clipPath>
    <clipPath
       clipPathUnits="userSpaceOnUse"
       id="clipPath46">
      <path
         d="M 0,660 H 660 V 0 H 0 Z"
         transform="translate(-316.12161,-555.40721)"
         id="path46" />
    </clipPath>
    <clipPath
       clipPathUnits="userSpaceOnUse"
       id="clipPath48">
      <path
         d="M 0,660 H 660 V 0 H 0 Z"
         transform="translate(-273.46041,-546.86872)"
         id="path48" />
    </clipPath>
    <clipPath
       clipPathUnits="userSpaceOnUse"
       id="clipPath50">
      <path
         d="M 0,660 H 660 V 0 H 0 Z"
         transform="translate(-9.9999752e-4,-370.37301)"
         id="path50" />
    </clipPath>
    <clipPath
       clipPathUnits="userSpaceOnUse"
       id="clipPath52">
      <path
         d="M 0,660 H 660 V 0 H 0 Z"
         transform="translate(-258.07471,-139.89651)"
         id="path52" />
    </clipPath>
    <clipPath
       clipPathUnits="userSpaceOnUse"
       id="clipPath54">
      <path
         d="M 0,660 H 660 V 0 H 0 Z"
         transform="translate(-9.9999752e-4,-370.37301)"
         id="path54" />
    </clipPath>
  </defs>
  <sodipodi:namedview
     id="namedview1"
     pagecolor="#ffffff"
     bordercolor="#000000"
     borderopacity="0.25"
     inkscape:showpageshadow="2"
     inkscape:pageopacity="0.0"
     inkscape:pagecheckerboard="0"
     inkscape:deskcolor="#d1d1d1"
     inkscape:zoom="0.67272727"
     inkscape:cx="439.25676"
     inkscape:cy="440"
     inkscape:window-width="1440"
     inkscape:window-height="830"
     inkscape:window-x="-6"
     inkscape:window-y="-6"
     inkscape:window-maximized="1"
     inkscape:current-layer="g1">
    <inkscape:page
       x="0"
       y="0"
       inkscape:label="1"
       id="page1"
       width="880"
       height="880"
       margin="0 0.49466667 1.2693334 0"
       bleed="0" />
  </sodipodi:namedview>
  <g
     id="g1"
     inkscape:groupmode="layer"
     inkscape:label="1">
    <g
       id="group-MC0">
      <path
         id="path2"
         d="M 0,0 H 659.629 V 659.047 H 0 Z"
         style="fill:#c3ecf9;fill-opacity:1;fill-rule:nonzero;stroke:none"
         transform="matrix(1.3333333,0,0,-1.3333333,0,880)" />
      <path
         id="path3"
         d="m 0,0 v -264.557 c -8.321,-4.327 -17.778,-6.78 -27.809,-6.78 -4.006,0 -7.922,0.395 -11.71,1.14 -9.097,-8.37 -21.237,-13.481 -34.574,-13.481 -13.814,0 -26.346,5.486 -35.541,14.394 -4.846,-1.772 -10.082,-2.739 -15.542,-2.739 -15.997,0 -30.054,8.299 -38.102,20.83 -5.862,-2.375 -12.268,-3.687 -18.982,-3.687 -24.865,0 -45.538,17.945 -49.775,41.592 -5.652,-4.569 -12.845,-7.308 -20.68,-7.308 -18.176,0 -32.911,14.735 -32.911,32.912 0,18.177 14.735,32.913 32.911,32.913 7.859,0 15.073,-2.755 20.734,-7.351 -0.556,2.706 -0.848,5.51 -0.848,8.38 0,22.911 18.572,41.484 41.482,41.484 11.185,0 21.332,-4.427 28.793,-11.623 5.238,2.957 11.264,4.677 17.685,4.762 -0.988,3.406 -1.52,7.005 -1.52,10.73 0,21.206 17.192,38.398 38.398,38.398 13.272,0 24.968,-6.736 31.865,-16.973 7.181,14.663 22.249,24.76 39.677,24.76 1.517,0 3.017,-0.077 4.495,-0.226 -1.317,4.533 -2.027,9.326 -2.027,14.283 0,22.214 14.18,41.113 33.981,48.147"
         style="fill:#ffffff;fill-opacity:1;fill-rule:evenodd;stroke:none"
         transform="matrix(1.3333333,0,0,-1.3333333,879.5052,65.0632)"
         clip-path="url(#clipPath4)" />
      <path
         id="path5"
         d="M 0,0 V 0.129 C 0.008,2.911 0.254,5.631 0.719,8.279 0.476,8.401 0.238,8.526 0,8.656 v 116.158 c 2.505,0.656 5.135,1.008 7.847,1.008 17.042,0 30.856,-13.815 30.856,-30.856 0,-4.322 -0.89,-8.435 -2.495,-12.169 8.403,-3.727 15.328,-10.173 19.659,-18.224 6.827,9.674 18.092,15.994 30.834,15.994 20.827,0 37.712,-16.884 37.712,-37.713 0,-4.098 -0.656,-8.043 -1.865,-11.737 11.949,-2.399 21.928,-10.247 27.234,-20.843 5.37,10.776 16.497,18.181 29.356,18.181 18.104,0 32.779,-14.677 32.779,-32.781 0,-18.106 -14.675,-32.781 -32.779,-32.781 -11.812,0 -22.163,6.247 -27.934,15.617 -5.705,-14.517 -19.846,-24.794 -36.39,-24.794 -12.619,0 -23.839,5.982 -30.985,15.263 C 75.089,-41.203 62.126,-47.656 47.654,-47.656 21.335,-47.656 0,-26.32 0,0"
         style="fill:#ffffff;fill-opacity:1;fill-rule:evenodd;stroke:none"
         transform="matrix(1.3333333,0,0,-1.3333333,0.00133333,408.10027)"
         clip-path="url(#clipPath6)" />
      <path
         id="path7"
         d="M 0.001,289.463 H 659.629 V -0.582 H 10e-4 Z"
         style="fill:#4ba5ce;fill-opacity:1;fill-rule:evenodd;stroke:none"
         transform="matrix(1.3333333,0,0,-1.3333333,0,880)"
         clip-path="url(#clipPath8)" />
      <path
         id="path9"
         d="m 0,0 v -29.091 l -252.331,6.743 182.392,9.601 -315.415,6.171 z M 0,28.576 V 8.738 L -612.316,22.907 Z M 0,-79.419 v -34.777 l -453.922,-2.777 147.422,-35.655 277.702,-0.684 -323.644,-18.516 -182.392,58.971 90.512,57.595 386.726,-13.025 -345.585,-8.915 z"
         style="fill:#64c2e5;fill-opacity:1;fill-rule:evenodd;stroke:none"
         transform="matrix(1.3333333,0,0,-1.3333333,879.5052,553.62627)"
         clip-path="url(#clipPath10)" />
      <path
         id="path11"
         d="m 0,0 95.309,38.828 74.74,-20.57 261.247,80.226 119.995,-56.912 63.082,30.17 45.255,-23.162 V -23.736 L 0,-23.736 Z"
         style="fill:#84d7f4;fill-opacity:1;fill-rule:evenodd;stroke:none"
         transform="matrix(1.3333333,0,0,-1.3333333,0.00133333,462.40107)"
         clip-path="url(#clipPath12)" />
      <path
         id="path13"
         d="M 0,0 -65.827,30.782 -130.968,10.897 -233.133,54.782 -391.528,12.268 -439.525,27.354 -501.921,12.268 -541.692,32.153 -610.946,0 Z"
         style="fill:#62c1e5;fill-opacity:1;fill-rule:evenodd;stroke:none"
         transform="matrix(1.3333333,0,0,-1.3333333,850.95573,494.04947)"
         clip-path="url(#clipPath14)" />
      <path
         id="path15"
         d="M 0,0 615.746,-370.955 H 0 Z"
         style="fill:#c5e338;fill-opacity:1;fill-rule:evenodd;stroke:none"
         transform="matrix(1.3333333,0,0,-1.3333333,0.00133333,386.16933)"
         clip-path="url(#clipPath16)" />
      <path
         id="path17"
         d="m 0,0 -64.249,309.691 -88.525,1.054 -5.132,-214.401 z"
         style="fill:#ffffff;fill-opacity:1;fill-rule:evenodd;stroke:none"
         transform="matrix(1.3333333,0,0,-1.3333333,533.01693,710.89973)"
         clip-path="url(#clipPath18)" />
      <path
         id="path19"
         d="m 0,0 c -5.993,-0.556 -10.788,-5.888 -9.997,-16.32 l 4.457,-58.971 31.8,-11.613 -14.145,69.042 C 10.238,-8.693 5.308,-2.676 0,0"
         style="fill:#481d15;fill-opacity:1;fill-rule:evenodd;stroke:none"
         transform="matrix(1.3333333,0,0,-1.3333333,476.03773,613.1276)"
         clip-path="url(#clipPath20)" />
      <path
         id="path21"
         d="m 0,0 -14.401,70.284 c -2.75,13.426 -12.042,20.098 -19.486,19.405 5.308,-2.675 10.239,-8.693 12.116,-17.862 L -7.627,2.785 Z"
         style="fill:#fbc5ad;fill-opacity:1;fill-rule:evenodd;stroke:none"
         transform="matrix(1.3333333,0,0,-1.3333333,521.22,732.7136)"
         clip-path="url(#clipPath22)" />
      <path
         id="path23"
         d="m 0,0 22.657,22.659 -7.64,41.364 h -129.626 l 3.424,-40.574 22.66,-22.395 z"
         style="fill:#ffffff;fill-opacity:1;fill-rule:evenodd;stroke:none"
         transform="matrix(1.3333333,0,0,-1.3333333,447.3516,297.97853)"
         clip-path="url(#clipPath24)" />
      <path
         id="path25"
         d="m 0,0 4.236,-40.822 10.123,-22.568 -35.3,0.421 -22.66,22.395 L -47.025,0 Z"
         style="fill:#fbc5ad;fill-opacity:1;fill-rule:evenodd;stroke:none"
         transform="matrix(1.3333333,0,0,-1.3333333,357.23893,212.61453)"
         clip-path="url(#clipPath26)" />
      <path
         id="path27"
         d="M 0,0 31.666,-257.971 -40.431,-213.98 -35.3,0.421 Z"
         style="fill:#fbc5ad;fill-opacity:1;fill-rule:evenodd;stroke:none"
         transform="matrix(1.3333333,0,0,-1.3333333,376.38413,297.1348)"
         clip-path="url(#clipPath28)" />
      <path
         id="path29"
         d="m 0,0 47.837,-0.247 10.123,-22.569 -35.3,0.421 z"
         style="fill:#f5a683;fill-opacity:1;fill-rule:evenodd;stroke:none"
         transform="matrix(1.3333333,0,0,-1.3333333,299.1048,266.7136)"
         clip-path="url(#clipPath30)" />
      <path
         id="path31"
         d="M 0,0 86.005,-0.543 63.348,-23.201 10.123,-22.568 Z"
         style="fill:#fdded2;fill-opacity:1;fill-rule:evenodd;stroke:none"
         transform="matrix(1.3333333,0,0,-1.3333333,362.88733,267.0436)"
         clip-path="url(#clipPath32)" />
      <path
         id="path33"
         d="m 0,0 h -128.05 l 2.185,91.327 h 106.918 z"
         style="fill:#f36530;fill-opacity:1;fill-rule:evenodd;stroke:none"
         transform="matrix(1.3333333,0,0,-1.3333333,494.56907,525.58333)"
         clip-path="url(#clipPath34)" />
      <path
         id="path35"
         d="M 0,0 11.21,-91.327 H -49.234 L -47.049,0 Z"
         style="fill:#8e341c;fill-opacity:1;fill-rule:evenodd;stroke:none"
         transform="matrix(1.3333333,0,0,-1.3333333,389.48173,403.8144)"
         clip-path="url(#clipPath36)" />
      <path
         id="path37"
         d="m 0,0 h -64.345 v -68.272 h 16.144 l -1.886,46.329 h 43.578 l 7.886,-46.329 h 9.495 z"
         style="fill:#f5a683;fill-opacity:1;fill-rule:evenodd;stroke:none"
         transform="matrix(1.3333333,0,0,-1.3333333,413.22467,121.58467)"
         clip-path="url(#clipPath38)" />
      <path
         id="path39"
         d="m 0,0 h -75.084 v -68.272 h 10.629 v 46.329 h 55.473 l 8.609,-46.329 h 13.058 z"
         style="fill:#ffffff;fill-opacity:1;fill-rule:evenodd;stroke:none"
         transform="matrix(1.3333333,0,0,-1.3333333,418.17707,121.58467)"
         clip-path="url(#clipPath40)" />
      <path
         id="path41"
         d="M 0,0 43.77,-20.829 87.538,-41.656 H 14.796 -57.946 l 28.971,20.827 z"
         style="fill:#f36530;fill-opacity:1;fill-rule:evenodd;stroke:none"
         transform="matrix(1.3333333,0,0,-1.3333333,354.04293,75.532533)"
         clip-path="url(#clipPath42)" />
      <path
         id="path43"
         d="m 0,0 -4.746,-41.656 h -53.2 z"
         style="fill:#8e341c;fill-opacity:1;fill-rule:evenodd;stroke:none"
         transform="matrix(1.3333333,0,0,-1.3333333,354.04293,75.532533)"
         clip-path="url(#clipPath44)" />
      <path
         id="path45"
         d="M 0,0 -77.573,-4.342 V 6.288 H -1.167 Z"
         style="fill:#fbc5ad;fill-opacity:1;fill-rule:evenodd;stroke:none"
         transform="matrix(1.3333333,0,0,-1.3333333,421.49547,139.45707)"
         clip-path="url(#clipPath46)" />
      <path
         id="path47"
         d="M 0,0 H 14.057 L 19.55,-46.33 H 5.493 Z"
         style="fill:#f5a683;fill-opacity:1;fill-rule:evenodd;stroke:none"
         transform="matrix(1.3333333,0,0,-1.3333333,364.61387,150.84173)"
         clip-path="url(#clipPath48)" />
      <path
         id="path49"
         d="m 0,0 615.746,-370.955 h -6.859 z"
         style="fill:#ffffff;fill-opacity:1;fill-rule:evenodd;stroke:none"
         transform="matrix(1.3333333,0,0,-1.3333333,0.00133333,386.16933)"
         clip-path="url(#clipPath50)" />
      <path
         id="path51"
         d="M 0,0 -139.88,-25.37 -258.074,4.544 v 225.932 l 472.65,-287.954 z"
         style="fill:#adda1a;fill-opacity:1;fill-rule:evenodd;stroke:none"
         transform="matrix(1.3333333,0,0,-1.3333333,344.0996,693.47133)"
         clip-path="url(#clipPath52)" />
      <path
         id="path53"
         d="M 0,0 248.005,-151.094 131.906,-129.511 77.738,-158.996 0,-137.737 Z"
         style="fill:#9ac421;fill-opacity:1;fill-rule:evenodd;stroke:none"
         transform="matrix(1.3333333,0,0,-1.3333333,0.00133333,386.16933)"
         clip-path="url(#clipPath54)" />
    </g>
  </g>
</svg>
