<?xml version="1.0" encoding="utf-8"?>

<!DOCTYPE svg PUBLIC "-//W3C//DTD SVG 1.1//EN" "http://www.w3.org/Graphics/SVG/1.1/DTD/svg11.dtd">
<svg version="1.1" id="Layer_1" xmlns="http://www.w3.org/2000/svg" xmlns:xlink="http://www.w3.org/1999/xlink" x="0px" y="0px"
	 viewBox="0 0 2560 1600" enable-background="new 0 0 2560 1600" xml:space="preserve">
<pattern  width="300" height="300" patternUnits="userSpaceOnUse" id="New_Pattern_3" viewBox="0 -300 300 300" overflow="visible">
	<g>
		<polygon fill="none" points="0,-300 300,-300 300,0 0,0 		"/>
		<path d="M158.148-282.17c2.972,0,5.94-0.008,8.913-0.008v-8.906h-8.913V-282.17z M17.83-158.148c0-2.972-0.008-5.94-0.008-8.913
			H8.915v8.913H17.83z M141.852-17.83c-2.972,0-5.94,0.008-8.913,0.008v8.906h8.913V-17.83z M282.17-141.852
			c0,2.972,0.008,5.94,0.008,8.913h8.906v-8.913H282.17z M291.085-158.148v-8.913h-8.906c0,2.972-0.008,5.94-0.008,8.913H291.085z
			 M141.852-291.085h-8.913v8.906c2.972,0,5.94,0.008,8.913,0.008V-291.085z M8.915-141.852v8.913h8.906
			c0-2.972,0.008-5.94,0.008-8.913H8.915z M158.148-8.915h8.913v-8.906c-2.972,0-5.94-0.008-8.913-0.008V-8.915z M175.516-158.11
			l31.668-0.008l4.491-4.491l-4.451-4.451h-40.164v-40.164l-4.451-4.451l-4.491,4.491l-0.008,31.668L175.516-158.11z
			 M158.11-124.484l0.008,31.668l4.491,4.491l4.451-4.451v-40.164h40.164l4.451-4.451l-4.491-4.491l-31.668-0.008L158.11-124.484z
			 M124.484-141.89l-31.668,0.008l-4.491,4.491l4.451,4.451h40.164v40.164l4.451,4.451l4.491-4.491l0.008-31.668L124.484-141.89z
			 M141.89-175.516l-0.008-31.668l-4.491-4.491l-4.451,4.451v40.164H92.776l-4.451,4.451l4.491,4.491l31.668,0.008L141.89-175.516z
			 M158.135-255.449l-0.004,26.694l4.477,4.477l4.453-4.453v-26.717H158.135z M44.551-158.135l26.694,0.004l4.477-4.477
			l-4.453-4.453H44.551V-158.135z M141.865-44.551l0.004-26.694l-4.477-4.477l-4.453,4.453v26.717H141.865z M255.449-141.865
			l-26.694-0.004l-4.477,4.477l4.453,4.453h26.717V-141.865z M255.449-167.061h-26.717l-4.453,4.453l4.477,4.477l26.694-0.004
			V-167.061z M132.939-255.449v26.717l4.453,4.453l4.477-4.477l-0.004-26.694H132.939z M44.551-132.939h26.717l4.453-4.453
			l-4.477-4.477l-26.694,0.004V-132.939z M167.061-44.551v-26.717l-4.453-4.453l-4.477,4.477l0.004,26.694H167.061z
			 M143.706-217.961l6.294,6.296l6.294-6.296l-6.294-6.3L143.706-217.961z M82.039-143.706L88.335-150l-6.296-6.294l-6.3,6.294
			L82.039-143.706z M156.294-82.039L150-88.335l-6.294,6.296l6.294,6.3L156.294-82.039z M217.961-156.294L211.665-150l6.296,6.294
			l6.3-6.294L217.961-156.294z M128.45-150L150-128.45L171.55-150L150-171.55L128.45-150z M210.917-175.969l7.061,7.065l7.059-7.065
			h39.325v17.828h8.902v-17.828h17.821l8.906,0.006l0.008,8.902v34.121l-0.008,8.902l-8.906,0.006h-17.821v-17.828h-8.902v17.828
			h-39.325l-7.059-7.065l-7.061,7.065h-34.948v34.948l-7.065,7.061l7.065,7.059v39.325h-17.828v8.902h17.828v17.821l-0.006,8.906
			L167.061,0h-34.121l-8.902-0.008l-0.006-8.906v-17.821h17.828v-8.902h-17.828v-39.325l7.065-7.059l-7.065-7.061v-34.948H89.083
			l-7.061-7.065l-7.059,7.065H35.638v-17.828h-8.902v17.828H8.915l-8.906-0.006L0-132.939v-34.121l0.008-8.902l8.906-0.006h17.821
			v17.828h8.902v-17.828h39.325l7.059,7.065l7.061-7.065h34.948v-34.948l7.065-7.061l-7.065-7.059v-39.325h17.828v-8.902h-17.828
			v-17.821l0.006-8.906l8.902-0.008h34.121l8.902,0.008l0.006,8.906v17.821h-17.828v8.902h17.828v39.325l-7.065,7.059l7.065,7.061
			v34.948H210.917z"/>
		<path d="M249.22-237.697c2.102,2.102,4.207,4.195,6.308,6.296l6.298-6.298l-6.302-6.302L249.22-237.697z M62.303-249.22
			c2.102-2.102,4.195-4.207,6.296-6.308l-6.298-6.298l-6.302,6.302L62.303-249.22z M50.78-62.303
			c-2.102-2.102-4.207-4.195-6.308-6.296l-6.298,6.298l6.302,6.302L50.78-62.303z M237.697-50.78
			c-2.102,2.102-4.195,4.207-6.296,6.308l6.298,6.298l6.302-6.302L237.697-50.78z M255.524-55.999l6.302-6.302l-6.298-6.298
			c-2.102,2.102-4.207,4.195-6.308,6.296L255.524-55.999z M244.001-255.524l-6.302-6.302l-6.298,6.298
			c2.102,2.102,4.195,4.207,6.296,6.308L244.001-255.524z M44.476-244.001l-6.302,6.302l6.298,6.298
			c2.102-2.102,4.207-4.195,6.308-6.296L44.476-244.001z M55.999-44.476l6.302,6.302l6.298-6.298
			c-2.102-2.102-4.195-4.207-6.296-6.308L55.999-44.476z M173.777-137.692l22.399,22.387h6.352v-6.295l-28.4-28.4l28.4-28.4v-6.295
			h-6.352l-22.399,22.387V-137.692z M137.692-126.223l-22.387,22.399v6.352h6.295l28.4-28.4l28.4,28.4h6.295v-6.352l-22.387-22.399
			H137.692z M126.223-162.308l-22.399-22.387h-6.352v6.295l28.4,28.4l-28.4,28.4v6.295h6.352l22.399-22.387V-162.308z
			 M162.308-173.777l22.387-22.399v-6.352H178.4l-28.4,28.4l-28.4-28.4h-6.295v6.352l22.387,22.399H162.308z M230.316-218.811
			l-18.878,18.872v6.331h6.298l18.892-18.892L230.316-218.811z M81.189-230.316l18.872,18.878h6.331v-6.298L87.5-236.627
			L81.189-230.316z M69.684-81.189l18.878-18.872v-6.331h-6.298L63.373-87.5L69.684-81.189z M218.811-69.684l-18.872-18.878h-6.331
			v6.298L212.5-63.373L218.811-69.684z M236.627-87.5l-18.892-18.892h-6.298v6.331l18.878,18.872L236.627-87.5z M212.5-236.627
			l-18.892,18.892v6.298h6.331l18.872-18.878L212.5-236.627z M63.373-212.5l18.892,18.892h6.298v-6.331l-18.878-18.872L63.373-212.5
			z M87.5-63.373l18.892-18.892v-6.298h-6.331L81.189-69.684L87.5-63.373z M193.605-202.506l-0.001,8.903l8.903-0.001l0.004-8.905
			L193.605-202.506z M97.494-193.605l8.903,0.001l-0.001-8.903l-8.905-0.004L97.494-193.605z M106.395-97.494l0.001-8.903
			l-8.903,0.001L97.49-97.49L106.395-97.494z M202.506-106.395l-8.903-0.001l0.001,8.903l8.905,0.004L202.506-106.395z
			 M134.762-165.238v30.476h30.476v-30.476H134.762z M211.438-125.288l-0.003,9.989l9.987-0.005l27.807,27.807l-12.606,12.606
			l6.295,6.295l12.606-12.606l12.602,12.602l6.293,6.302l-6.289,6.301L244.002-31.87l-6.301,6.289l-6.302-6.293l-12.602-12.602
			l12.606-12.606l-6.295-6.295l-12.606,12.606l-27.807-27.807l0.005-9.987l-9.989,0.003L150-113.274l-24.712,24.712l-9.989-0.003
			l0.005,9.987L87.497-50.771L74.891-63.377l-6.295,6.295l12.606,12.606L68.601-31.875l-6.302,6.293l-6.301-6.289L31.87-55.998
			l-6.289-6.301l6.293-6.302l12.602-12.602l12.606,12.606l6.295-6.295L50.771-87.497l27.807-27.807l9.987,0.005l-0.003-9.989
			L113.274-150l-24.712-24.712l0.003-9.989l-9.987,0.005l-27.807-27.807l12.606-12.606l-6.295-6.295l-12.606,12.606l-12.602-12.602
			l-6.293-6.302l6.289-6.301l24.128-24.128l6.301-6.289l6.302,6.293l12.602,12.602l-12.606,12.606l6.295,6.295l12.606-12.606
			l27.807,27.807l-0.005,9.987l9.989-0.003L150-186.726l24.712-24.712l9.989,0.003l-0.005-9.987l27.807-27.807l12.606,12.606
			l6.295-6.295l-12.606-12.606l12.602-12.602l6.302-6.293l6.301,6.289l24.128,24.128l6.289,6.301l-6.293,6.302l-12.602,12.602
			l-12.606-12.606l-6.295,6.295l12.606,12.606l-27.807,27.807l-9.987-0.005l0.003,9.989L186.726-150L211.438-125.288z"/>
	</g>
</pattern>
<rect fill="url(#New_Pattern_3)" width="2560" height="1600"/>
</svg>
