<?xml version="1.0" encoding="utf-8"?>

<!DOCTYPE svg PUBLIC "-//W3C//DTD SVG 1.1//EN" "http://www.w3.org/Graphics/SVG/1.1/DTD/svg11.dtd">
<svg version="1.1" id="Layer_1" xmlns="http://www.w3.org/2000/svg" xmlns:xlink="http://www.w3.org/1999/xlink" x="0px" y="0px"
	 viewBox="0 0 2560 1600" enable-background="new 0 0 2560 1600" xml:space="preserve">
<pattern  width="200" height="200" patternUnits="userSpaceOnUse" id="New_Pattern" viewBox="0 -200 200 200" overflow="visible">
	<g>
		<polygon fill="none" points="0,-200 200,-200 200,0 0,0 		"/>
		<polygon points="119.011,-80.989 119.011,-29.523 103.352,-13.863 117.22,-0.002 124.077,-0.002 110.241,-13.831 124.069,-27.478 
			124.074,-75.926 172.522,-75.931 186.169,-89.759 199.998,-75.923 199.998,-82.78 186.137,-96.648 170.477,-80.989 		"/>
		<polygon points="80.989,-80.989 29.523,-80.989 13.863,-96.648 0.002,-82.78 0.002,-75.923 13.831,-89.759 27.478,-75.931 
			75.926,-75.926 75.931,-27.478 89.759,-13.831 75.923,-0.002 82.78,-0.002 96.648,-13.863 80.989,-29.523 		"/>
		<polygon points="80.989,-119.011 80.989,-170.477 96.648,-186.137 82.78,-199.998 75.923,-199.998 89.759,-186.169 
			75.931,-172.522 75.926,-124.074 27.478,-124.069 13.831,-110.241 0.002,-124.077 0.002,-117.22 13.863,-103.352 29.523,-119.011 
					"/>
		<polygon points="119.011,-119.011 170.477,-119.011 186.137,-103.352 199.998,-117.22 199.998,-124.077 186.169,-110.241 
			172.522,-124.069 124.074,-124.074 124.069,-172.522 110.241,-186.169 124.077,-199.998 117.22,-199.998 103.352,-186.137 
			119.011,-170.477 		"/>
		<polygon points="104.002,-104.002 95.998,-104.002 95.998,-95.998 104.002,-95.998 		"/>
		<polygon points="200,-110.307 189.693,-100 200,-89.693 		"/>
		<polygon points="110.307,0 100,-10.307 89.693,0 		"/>
		<polygon points="0,-89.693 10.307,-100 0,-110.307 		"/>
		<polygon points="89.693,-200 100,-189.693 110.307,-200 		"/>
		<path d="M100-108.874l-8.896-0.021L91.126-100l-0.021,8.896L100-91.126l8.896,0.021L108.874-100l0.021-8.896L100-108.874z
			 M168.35-85.747l-54.343-0.246l0.246,54.343L100-17.385L85.747-31.65l0.246-54.343L31.65-85.747L17.385-100l14.265-14.253
			l54.343,0.246l-0.246-54.343L100-182.615l14.253,14.265l-0.246,54.343l54.343-0.246L182.615-100L168.35-85.747z"/>
	</g>
</pattern>
<rect fill="url(#New_Pattern)" width="2560" height="1600"/>
</svg>
