<?xml version="1.0" encoding="utf-8"?>

<!DOCTYPE svg PUBLIC "-//W3C//DTD SVG 1.1//EN" "http://www.w3.org/Graphics/SVG/1.1/DTD/svg11.dtd">
<svg version="1.1" id="Layer_1" xmlns="http://www.w3.org/2000/svg" xmlns:xlink="http://www.w3.org/1999/xlink" x="0px" y="0px"
	 viewBox="0 0 2560 1600" enable-background="new 0 0 2560 1600" xml:space="preserve">
<pattern  width="190" height="190" patternUnits="userSpaceOnUse" id="New_Pattern" viewBox="195 -385 190 190" overflow="visible">
	<g>
		<polygon fill="none" points="195,-385 385,-385 385,-195 195,-195 		"/>
		<g id="layer1_25_" transform="translate(-251.59 -314.95)">
			<path id="path3807_25_" d="M727.143,131.128l4.447-4.447l4.447,4.447l-4.447,4.447L727.143,131.128z M815.412,210.503
				l4.447,4.447l-4.447,4.447l-4.447-4.447L815.412,210.503z M736.037,298.772l-4.447,4.447l-4.447-4.447l4.447-4.447
				L736.037,298.772z M647.768,219.397l-4.447-4.447l4.447-4.447l4.447,4.447L647.768,219.397z M783.784,178.733h18.749
				l0.121,19.007l8.22,8.219l2.301-2.301l0,0l-7.173-7.171l-0.052-21.035l-20.913-0.066l-6.941-6.943l-6.943-6.941l-0.066-20.913
				l-21.035-0.052l-7.171-7.173l0,0l-2.301,2.301l8.219,8.22l19.007,0.121v18.749l7.989,7.988L783.784,178.733z M767.807,267.144
				v18.749l-19.007,0.121l-8.219,8.22l2.301,2.301l0,0l7.171-7.173l21.035-0.052l0.066-20.913l6.943-6.941l6.941-6.943l20.913-0.066
				l0.052-21.035l7.173-7.171l0,0l-2.301-2.301l-8.22,8.219l-0.121,19.007h-18.749l-7.988,7.989L767.807,267.144z M679.396,251.167
				h-18.749l-0.121-19.007l-8.22-8.219l-2.301,2.301l0,0l7.173,7.171l0.052,21.035l20.913,0.066l6.941,6.943l6.943,6.941
				l0.066,20.913l21.035,0.052l7.171,7.173l0,0l2.301-2.301l-8.219-8.22l-19.007-0.121v-18.749l-7.989-7.988L679.396,251.167z
				 M695.373,162.756v-18.749l19.007-0.121l8.219-8.22l-2.301-2.301l0,0l-7.171,7.173l-21.035,0.052l-0.066,20.913l-6.943,6.941
				l-6.941,6.943l-20.913,0.066l-0.052,21.035l-7.173,7.171l0,0l2.301,2.301l8.22-8.219l0.121-19.007h18.749l7.988-7.989
				L695.373,162.756z M724.837,128.821l-10.457-10.457h-44.527v34.85h-34.85v44.527l10.457,10.457l-6.756,6.753l6.756,6.753
				l-10.457,10.457v44.527h34.85v34.85h44.527l10.457-10.457l6.753,6.756l6.753-6.756l10.457,10.457h44.527v-34.85h34.85V232.16
				l-10.457-10.457l6.756-6.753l-6.756-6.753l10.457-10.457v-44.527h-34.85v-34.85h-44.527l-10.457,10.457l-6.753-6.756
				L724.837,128.821z M831.59,149.831l-0.038,49.278l-9.233,9.113l6.732,6.728l-6.732,6.728l9.233,9.113l0.038,49.278l-34.884-0.003
				l0.003,34.884l-49.278-0.038l-9.113-9.233l-6.728,6.732l-6.728-6.732l-9.113,9.233l-49.278,0.038l0.003-34.884l-34.884,0.003
				l0.038-49.278l9.233-9.113l-6.732-6.728l6.732-6.728l-9.233-9.113l-0.038-49.278l34.884,0.003l-0.003-34.884l49.278,0.038
				l9.113,9.233l6.728-6.732l6.728,6.732l9.113-9.233l49.278-0.038l-0.003,34.884L831.59,149.831z M724.909,137.977l-9.165,9.17
				h-17.111v16.974l-8.939,8.934l-8.934,8.939h-16.974v17.111l-9.169,9.165l6.681,6.681l-6.681,6.681l9.169,9.165v17.111h16.974
				l8.934,8.939l8.939,8.934v16.974h17.111l9.165,9.17l6.681-6.681l6.681,6.681l9.165-9.17h17.111v-16.974l8.939-8.934l8.934-8.939
				h16.974v-17.111l9.169-9.165l-6.681-6.681l6.681-6.681l-9.169-9.165v-17.111h-16.974l-8.934-8.939l-8.939-8.934v-16.974h-17.111
				l-9.165-9.17l-6.681,6.681L724.909,137.977z M824.9,156.57L824.9,156.57l0.096,39.747l-18.618,18.633l18.618,18.633
				l-0.096,39.747l0,0l-34.773,0.157l-0.157,34.773l0,0l-39.747,0.096l-18.633-18.618l-18.633,18.618l-39.747-0.096l0,0
				l-0.157-34.773l-34.773-0.157l0,0l-0.096-39.747l18.618-18.633l-18.618-18.633l0.096-39.747l0,0l34.773-0.157l0.157-34.773l0,0
				l39.747-0.096l18.633,18.618l18.633-18.618l39.747,0.096l0,0l0.157,34.773L824.9,156.57z"/>
		</g>
		<g id="layer1_24_" transform="translate(-251.59 -314.95)">
			<path id="path3807_24_" d="M537.143,131.128l4.447-4.447l4.447,4.447l-4.447,4.447L537.143,131.128z M625.412,210.503
				l4.447,4.447l-4.447,4.447l-4.447-4.447L625.412,210.503z M546.037,298.772l-4.447,4.447l-4.447-4.447l4.447-4.447
				L546.037,298.772z M457.768,219.397l-4.447-4.447l4.447-4.447l4.447,4.447L457.768,219.397z M593.784,178.733h18.749
				l0.121,19.007l8.22,8.219l2.301-2.301l0,0l-7.173-7.171l-0.052-21.035l-20.913-0.066l-6.941-6.943l-6.943-6.941l-0.066-20.913
				l-21.035-0.052l-7.171-7.173l0,0l-2.301,2.301l8.219,8.22l19.007,0.121v18.749l7.989,7.988L593.784,178.733z M577.807,267.144
				v18.749l-19.007,0.121l-8.219,8.22l2.301,2.301l0,0l7.171-7.173l21.035-0.052l0.066-20.913l6.943-6.941l6.941-6.943l20.913-0.066
				l0.052-21.035l7.173-7.171l0,0l-2.301-2.301l-8.22,8.219l-0.121,19.007h-18.749l-7.988,7.989L577.807,267.144z M489.396,251.167
				h-18.749l-0.121-19.007l-8.22-8.219l-2.301,2.301l0,0l7.173,7.171l0.052,21.035l20.913,0.066l6.941,6.943l6.943,6.941
				l0.066,20.913l21.035,0.052l7.171,7.173l0,0l2.301-2.301l-8.219-8.22l-19.007-0.121v-18.749l-7.989-7.988L489.396,251.167z
				 M505.373,162.756v-18.749l19.007-0.121l8.219-8.22l-2.301-2.301l0,0l-7.171,7.173l-21.035,0.052l-0.066,20.913l-6.943,6.941
				l-6.941,6.943l-20.913,0.066l-0.052,21.035l-7.173,7.171l0,0l2.301,2.301l8.22-8.219l0.121-19.007h18.749l7.988-7.989
				L505.373,162.756z M534.837,128.821l-10.457-10.457h-44.527v34.85h-34.85v44.527l10.457,10.457l-6.756,6.753l6.756,6.753
				l-10.457,10.457v44.527h34.85v34.85h44.527l10.457-10.457l6.753,6.756l6.753-6.756l10.457,10.457h44.527v-34.85h34.85V232.16
				l-10.457-10.457l6.756-6.753l-6.756-6.753l10.457-10.457v-44.527h-34.85v-34.85h-44.527l-10.457,10.457l-6.753-6.756
				L534.837,128.821z M641.59,149.831l-0.038,49.278l-9.233,9.113l6.732,6.728l-6.732,6.728l9.233,9.113l0.038,49.278l-34.884-0.003
				l0.003,34.884l-49.278-0.038l-9.113-9.233l-6.728,6.732l-6.728-6.732l-9.113,9.233l-49.278,0.038l0.003-34.884l-34.884,0.003
				l0.038-49.278l9.233-9.113l-6.732-6.728l6.732-6.728l-9.233-9.113l-0.038-49.278l34.884,0.003l-0.003-34.884l49.278,0.038
				l9.113,9.233l6.728-6.732l6.728,6.732l9.113-9.233l49.278-0.038l-0.003,34.884L641.59,149.831z M534.909,137.977l-9.165,9.17
				h-17.111v16.974l-8.939,8.934l-8.934,8.939h-16.974v17.111l-9.17,9.165l6.681,6.681l-6.681,6.681l9.17,9.165v17.111h16.974
				l8.934,8.939l8.939,8.934v16.974h17.111l9.165,9.17l6.681-6.681l6.681,6.681l9.165-9.17h17.111v-16.974l8.939-8.934l8.934-8.939
				h16.974v-17.111l9.169-9.165l-6.681-6.681l6.681-6.681l-9.169-9.165v-17.111h-16.974l-8.934-8.939l-8.939-8.934v-16.974h-17.111
				l-9.165-9.17l-6.681,6.681L534.909,137.977z M634.9,156.57L634.9,156.57l0.096,39.747l-18.618,18.633l18.618,18.633
				l-0.096,39.747l0,0l-34.773,0.157l-0.157,34.773l0,0l-39.747,0.096l-18.633-18.618l-18.633,18.618l-39.747-0.096l0,0
				l-0.157-34.773l-34.773-0.157l0,0l-0.096-39.747l18.618-18.633l-18.618-18.633l0.096-39.747l0,0l34.773-0.157l0.157-34.773l0,0
				l39.747-0.096l18.633,18.618l18.633-18.618l39.747,0.096l0,0l0.157,34.773L634.9,156.57z"/>
		</g>
		<g id="layer1_23_" transform="translate(-251.59 -314.95)">
			<path id="path3807_23_" d="M347.143,131.128l4.447-4.447l4.447,4.447l-4.447,4.447L347.143,131.128z M435.412,210.503
				l4.447,4.447l-4.447,4.447l-4.447-4.447L435.412,210.503z M356.037,298.772l-4.447,4.447l-4.447-4.447l4.447-4.447
				L356.037,298.772z M267.768,219.397l-4.447-4.447l4.447-4.447l4.447,4.447L267.768,219.397z M403.784,178.733h18.749
				l0.121,19.007l8.22,8.219l2.301-2.301l0,0l-7.173-7.171l-0.052-21.035l-20.913-0.066l-6.941-6.943l-6.943-6.941l-0.066-20.913
				l-21.035-0.052l-7.171-7.173l0,0l-2.301,2.301l8.219,8.22l19.007,0.121v18.749l7.989,7.988L403.784,178.733z M387.807,267.144
				v18.749l-19.007,0.121l-8.219,8.22l2.301,2.301l0,0l7.171-7.173l21.035-0.052l0.066-20.913l6.943-6.941l6.941-6.943l20.913-0.066
				l0.052-21.035l7.173-7.171l0,0l-2.301-2.301l-8.22,8.219l-0.121,19.007h-18.749l-7.988,7.989L387.807,267.144z M299.396,251.167
				h-18.749l-0.121-19.007l-8.22-8.219l-2.301,2.301l0,0l7.173,7.171l0.052,21.035l20.913,0.066l6.941,6.943l6.943,6.941
				l0.066,20.913l21.035,0.052l7.171,7.173l0,0l2.301-2.301l-8.219-8.22l-19.007-0.121v-18.749l-7.989-7.988L299.396,251.167z
				 M315.373,162.756v-18.749l19.007-0.121l8.219-8.22l-2.301-2.301l0,0l-7.171,7.173l-21.035,0.052l-0.066,20.913l-6.943,6.941
				l-6.941,6.943l-20.913,0.066l-0.052,21.035l-7.173,7.171l0,0l2.301,2.301l8.22-8.219l0.121-19.007h18.749l7.988-7.989
				L315.373,162.756z M344.837,128.821l-10.457-10.457h-44.527v34.85h-34.85v44.527l10.457,10.457l-6.756,6.753l6.756,6.753
				l-10.457,10.457v44.527h34.85v34.85h44.527l10.457-10.457l6.753,6.756l6.753-6.756l10.457,10.457h44.527v-34.85h34.85V232.16
				l-10.457-10.457l6.756-6.753l-6.756-6.753l10.457-10.457v-44.527h-34.85v-34.85H368.8l-10.457,10.457l-6.753-6.756
				L344.837,128.821z M451.59,149.831l-0.038,49.278l-9.233,9.113l6.732,6.728l-6.732,6.728l9.233,9.113l0.038,49.278l-34.884-0.003
				l0.003,34.884l-49.278-0.038l-9.113-9.233l-6.728,6.732l-6.728-6.732l-9.113,9.233l-49.278,0.038l0.003-34.884l-34.884,0.003
				l0.038-49.278l9.233-9.113l-6.732-6.728l6.732-6.728l-9.233-9.113l-0.038-49.278l34.884,0.003l-0.003-34.884l49.278,0.038
				l9.113,9.233l6.728-6.732l6.728,6.732l9.113-9.233l49.278-0.038l-0.003,34.884L451.59,149.831z M344.909,137.977l-9.165,9.17
				h-17.111v16.974l-8.939,8.934l-8.934,8.939h-16.974v17.111l-9.17,9.165l6.681,6.681l-6.681,6.681l9.17,9.165v17.111h16.974
				l8.934,8.939l8.939,8.934v16.974h17.111l9.165,9.17l6.681-6.681l6.681,6.681l9.165-9.17h17.111v-16.974l8.939-8.934l8.934-8.939
				h16.974v-17.111l9.17-9.165l-6.681-6.681l6.681-6.681l-9.17-9.165v-17.111h-16.974l-8.934-8.939l-8.939-8.934v-16.974h-17.111
				l-9.165-9.17l-6.681,6.681L344.909,137.977z M444.9,156.57L444.9,156.57l0.096,39.747l-18.618,18.633l18.618,18.633
				l-0.096,39.747l0,0l-34.773,0.157l-0.157,34.773l0,0l-39.747,0.096l-18.633-18.618l-18.633,18.618l-39.747-0.096l0,0
				l-0.157-34.773l-34.773-0.157l0,0l-0.096-39.747l18.618-18.633l-18.618-18.633l0.096-39.747l0,0l34.773-0.157l0.157-34.773l0,0
				l39.747-0.096l18.633,18.618l18.633-18.618l39.747,0.096l0,0l0.157,34.773L444.9,156.57z"/>
		</g>
		<g id="layer1_22_" transform="translate(-251.59 -314.95)">
			<path id="path3807_22_" d="M727.143-58.872l4.447-4.447l4.447,4.447l-4.447,4.447L727.143-58.872z M815.412,20.503l4.447,4.447
				l-4.447,4.447l-4.447-4.447L815.412,20.503z M736.037,108.772l-4.447,4.447l-4.447-4.447l4.447-4.447L736.037,108.772z
				 M647.768,29.397l-4.447-4.447l4.447-4.447l4.447,4.447L647.768,29.397z M783.784-11.267h18.749l0.121,19.007l8.22,8.219
				l2.301-2.301l0,0l-7.173-7.171l-0.052-21.035l-20.913-0.066l-6.941-6.943l-6.943-6.941l-0.066-20.913l-21.035-0.052l-7.171-7.173
				l0,0l-2.301,2.301l8.219,8.22l19.007,0.121v18.749l7.989,7.989L783.784-11.267z M767.807,77.144v18.749L748.8,96.015l-8.219,8.22
				l2.301,2.301l0,0l7.171-7.173l21.035-0.052l0.066-20.913l6.943-6.941l6.941-6.943l20.913-0.066l0.052-21.035l7.173-7.171l0,0
				l-2.301-2.301l-8.22,8.219l-0.121,19.007h-18.749l-7.988,7.989L767.807,77.144z M679.396,61.167h-18.749l-0.121-19.007
				l-8.22-8.219l-2.301,2.301l0,0l7.173,7.171l0.052,21.035l20.913,0.066l6.941,6.943l6.943,6.941l0.066,20.913l21.035,0.052
				l7.171,7.173l0,0l2.301-2.301l-8.219-8.22l-19.007-0.121V77.144l-7.989-7.989L679.396,61.167z M695.373-27.244v-18.749
				l19.007-0.121l8.219-8.22l-2.301-2.301l0,0l-7.171,7.173l-21.035,0.052l-0.066,20.913l-6.943,6.941l-6.941,6.943l-20.913,0.066
				l-0.052,21.035l-7.173,7.171l0,0l2.301,2.301l8.22-8.219l0.121-19.007h18.749l7.988-7.989L695.373-27.244z M724.837-61.179
				L714.38-71.636h-44.527v34.85h-34.85V7.74l10.457,10.457l-6.756,6.753l6.756,6.753L635.004,42.16v44.527h34.85v34.85h44.527
				l10.457-10.457l6.753,6.756l6.753-6.756l10.457,10.457h44.527v-34.85h34.85V42.16l-10.457-10.457l6.756-6.753l-6.756-6.753
				L828.176,7.74v-44.527h-34.85v-34.85h-44.527l-10.457,10.457l-6.753-6.756L724.837-61.179z M831.59-40.169l-0.038,49.278
				l-9.233,9.113l6.732,6.728l-6.732,6.728l9.233,9.113l0.038,49.278l-34.884-0.003l0.003,34.884l-49.278-0.038l-9.113-9.233
				l-6.728,6.732l-6.728-6.732l-9.113,9.233l-49.278,0.038l0.003-34.884l-34.884,0.003l0.038-49.278l9.233-9.113l-6.732-6.728
				l6.732-6.728l-9.233-9.113l-0.038-49.278l34.884,0.003l-0.003-34.884l49.278,0.038l9.113,9.233l6.728-6.732l6.728,6.732
				l9.113-9.233l49.278-0.038l-0.003,34.884L831.59-40.169z M724.909-52.023l-9.165,9.17h-17.111v16.974l-8.939,8.934l-8.934,8.939
				h-16.974V9.104l-9.169,9.165l6.681,6.681l-6.681,6.681l9.169,9.165v17.111h16.974l8.934,8.939l8.939,8.934v16.974h17.111
				l9.165,9.17l6.681-6.681l6.681,6.681l9.165-9.17h17.111V75.779l8.939-8.934l8.934-8.939h16.974V40.796l9.169-9.165l-6.681-6.681
				l6.681-6.681l-9.169-9.165V-8.006h-16.974l-8.934-8.939l-8.939-8.934v-16.974h-17.111l-9.165-9.17l-6.681,6.681L724.909-52.023z
				 M824.9-33.43L824.9-33.43l0.096,39.747L806.378,24.95l18.618,18.633L824.9,83.329l0,0l-34.773,0.157l-0.157,34.773l0,0
				l-39.747,0.096L731.59,99.738l-18.633,18.618l-39.747-0.096l0,0l-0.157-34.773L638.28,83.33l0,0l-0.096-39.747l18.618-18.633
				L638.184,6.317l0.096-39.747l0,0l34.773-0.157l0.157-34.773l0,0l39.747-0.096l18.633,18.618l18.633-18.618l39.747,0.096l0,0
				l0.157,34.773L824.9-33.43z"/>
		</g>
		<g id="layer1_21_" transform="translate(-251.59 -314.95)">
			<path id="path3807_21_" d="M537.143-58.872l4.447-4.447l4.447,4.447l-4.447,4.447L537.143-58.872z M625.412,20.503l4.447,4.447
				l-4.447,4.447l-4.447-4.447L625.412,20.503z M546.037,108.772l-4.447,4.447l-4.447-4.447l4.447-4.447L546.037,108.772z
				 M457.768,29.397l-4.447-4.447l4.447-4.447l4.447,4.447L457.768,29.397z M593.784-11.267h18.749l0.121,19.007l8.22,8.219
				l2.301-2.301l0,0l-7.173-7.171l-0.052-21.035l-20.913-0.066l-6.941-6.943l-6.943-6.941l-0.066-20.913l-21.035-0.052l-7.171-7.173
				l0,0l-2.301,2.301l8.219,8.22l19.007,0.121v18.749l7.989,7.989L593.784-11.267z M577.807,77.144v18.749L558.8,96.015l-8.219,8.22
				l2.301,2.301l0,0l7.171-7.173l21.035-0.052l0.066-20.913l6.943-6.941l6.941-6.943l20.913-0.066l0.052-21.035l7.173-7.171l0,0
				l-2.301-2.301l-8.22,8.219l-0.121,19.007h-18.749l-7.988,7.989L577.807,77.144z M489.396,61.167h-18.749l-0.121-19.007
				l-8.22-8.219l-2.301,2.301l0,0l7.173,7.171l0.052,21.035l20.913,0.066l6.941,6.943l6.943,6.941l0.066,20.913l21.035,0.052
				l7.171,7.173l0,0l2.301-2.301l-8.219-8.22l-19.007-0.121V77.144l-7.989-7.989L489.396,61.167z M505.373-27.244v-18.749
				l19.007-0.121l8.219-8.22l-2.301-2.301l0,0l-7.171,7.173l-21.035,0.052l-0.066,20.913l-6.943,6.941l-6.941,6.943l-20.913,0.066
				l-0.052,21.035l-7.173,7.171l0,0l2.301,2.301l8.22-8.219l0.121-19.007h18.749l7.988-7.989L505.373-27.244z M534.837-61.179
				L524.38-71.636h-44.527v34.85h-34.85V7.74l10.457,10.457l-6.756,6.753l6.756,6.753L445.004,42.16v44.527h34.85v34.85h44.527
				l10.457-10.457l6.753,6.756l6.753-6.756l10.457,10.457h44.527v-34.85h34.85V42.16l-10.457-10.457l6.756-6.753l-6.756-6.753
				L638.176,7.74v-44.527h-34.85v-34.85h-44.527l-10.457,10.457l-6.753-6.756L534.837-61.179z M641.59-40.169l-0.038,49.278
				l-9.233,9.113l6.732,6.728l-6.732,6.728l9.233,9.113l0.038,49.278l-34.884-0.003l0.003,34.884l-49.278-0.038l-9.113-9.233
				l-6.728,6.732l-6.728-6.732l-9.113,9.233l-49.278,0.038l0.003-34.884l-34.884,0.003l0.038-49.278l9.233-9.113l-6.732-6.728
				l6.732-6.728l-9.233-9.113l-0.038-49.278l34.884,0.003l-0.003-34.884l49.278,0.038l9.113,9.233l6.728-6.732l6.728,6.732
				l9.113-9.233l49.278-0.038l-0.003,34.884L641.59-40.169z M534.909-52.023l-9.165,9.17h-17.111v16.974l-8.939,8.934l-8.934,8.939
				h-16.974V9.104l-9.17,9.165l6.681,6.681l-6.681,6.681l9.17,9.165v17.111h16.974l8.934,8.939l8.939,8.934v16.974h17.111
				l9.165,9.17l6.681-6.681l6.681,6.681l9.165-9.17h17.111V75.779l8.939-8.934l8.934-8.939h16.974V40.796l9.169-9.165l-6.681-6.681
				l6.681-6.681l-9.169-9.165V-8.006h-16.974l-8.934-8.939l-8.939-8.934v-16.974h-17.111l-9.165-9.17l-6.681,6.681L534.909-52.023z
				 M634.9-33.43L634.9-33.43l0.096,39.747L616.378,24.95l18.618,18.633L634.9,83.329l0,0l-34.773,0.157l-0.157,34.773l0,0
				l-39.747,0.096L541.59,99.738l-18.633,18.618l-39.747-0.096l0,0l-0.157-34.773L448.28,83.33l0,0l-0.096-39.747l18.618-18.633
				L448.184,6.317l0.096-39.747l0,0l34.773-0.157l0.157-34.773l0,0l39.747-0.096l18.633,18.618l18.633-18.618l39.747,0.096l0,0
				l0.157,34.773L634.9-33.43z"/>
		</g>
		<g id="layer1_20_" transform="translate(-251.59 -314.95)">
			<path id="path3807_20_" d="M347.143-58.872l4.447-4.447l4.447,4.447l-4.447,4.447L347.143-58.872z M435.412,20.503l4.447,4.447
				l-4.447,4.447l-4.447-4.447L435.412,20.503z M356.037,108.772l-4.447,4.447l-4.447-4.447l4.447-4.447L356.037,108.772z
				 M267.768,29.397l-4.447-4.447l4.447-4.447l4.447,4.447L267.768,29.397z M403.784-11.267h18.749l0.121,19.007l8.22,8.219
				l2.301-2.301l0,0l-7.173-7.171l-0.052-21.035l-20.913-0.066l-6.941-6.943l-6.943-6.941l-0.066-20.913l-21.035-0.052l-7.171-7.173
				l0,0l-2.301,2.301l8.219,8.22l19.007,0.121v18.749l7.989,7.989L403.784-11.267z M387.807,77.144v18.749L368.8,96.015l-8.219,8.22
				l2.301,2.301l0,0l7.171-7.173l21.035-0.052l0.066-20.913l6.943-6.941l6.941-6.943l20.913-0.066l0.052-21.035l7.173-7.171l0,0
				l-2.301-2.301l-8.22,8.219l-0.121,19.007h-18.749l-7.988,7.989L387.807,77.144z M299.396,61.167h-18.749l-0.121-19.007
				l-8.22-8.219l-2.301,2.301l0,0l7.173,7.171l0.052,21.035l20.913,0.066l6.941,6.943l6.943,6.941l0.066,20.913l21.035,0.052
				l7.171,7.173l0,0l2.301-2.301l-8.219-8.22l-19.007-0.121V77.144l-7.989-7.989L299.396,61.167z M315.373-27.244v-18.749
				l19.007-0.121l8.219-8.22l-2.301-2.301l0,0l-7.171,7.173l-21.035,0.052l-0.066,20.913l-6.943,6.941l-6.941,6.943l-20.913,0.066
				l-0.052,21.035l-7.173,7.171l0,0l2.301,2.301l8.22-8.219l0.121-19.007h18.749l7.988-7.989L315.373-27.244z M344.837-61.179
				L334.38-71.636h-44.527v34.85h-34.85V7.74l10.457,10.457l-6.756,6.753l6.756,6.753L255.004,42.16v44.527h34.85v34.85h44.527
				l10.457-10.457l6.753,6.756l6.753-6.756l10.457,10.457h44.527v-34.85h34.85V42.16l-10.457-10.457l6.756-6.753l-6.756-6.753
				L448.176,7.74v-44.527h-34.85v-34.85H368.8l-10.457,10.457l-6.753-6.756L344.837-61.179z M451.59-40.169l-0.038,49.278
				l-9.233,9.113l6.732,6.728l-6.732,6.728l9.233,9.113l0.038,49.278l-34.884-0.003l0.003,34.884l-49.278-0.038l-9.113-9.233
				l-6.728,6.732l-6.728-6.732l-9.113,9.233l-49.278,0.038l0.003-34.884l-34.884,0.003l0.038-49.278l9.233-9.113l-6.732-6.728
				l6.732-6.728l-9.233-9.113l-0.038-49.278l34.884,0.003l-0.003-34.884l49.278,0.038l9.113,9.233l6.728-6.732l6.728,6.732
				l9.113-9.233l49.278-0.038l-0.003,34.884L451.59-40.169z M344.909-52.023l-9.165,9.17h-17.111v16.974l-8.939,8.934l-8.934,8.939
				h-16.974V9.104l-9.17,9.165l6.681,6.681l-6.681,6.681l9.17,9.165v17.111h16.974l8.934,8.939l8.939,8.934v16.974h17.111
				l9.165,9.17l6.681-6.681l6.681,6.681l9.165-9.17h17.111V75.779l8.939-8.934l8.934-8.939h16.974V40.796l9.17-9.165l-6.681-6.681
				l6.681-6.681l-9.17-9.165V-8.006h-16.974l-8.934-8.939l-8.939-8.934v-16.974h-17.111l-9.165-9.17l-6.681,6.681L344.909-52.023z
				 M444.9-33.43L444.9-33.43l0.096,39.747L426.378,24.95l18.618,18.633L444.9,83.329l0,0l-34.773,0.157l-0.157,34.773l0,0
				l-39.747,0.096L351.59,99.738l-18.633,18.618l-39.747-0.096l0,0l-0.157-34.773L258.28,83.33l0,0l-0.096-39.747l18.618-18.633
				L258.184,6.317l0.096-39.747l0,0l34.773-0.157l0.157-34.773l0,0l39.747-0.096l18.633,18.618l18.633-18.618l39.747,0.096l0,0
				l0.157,34.773L444.9-33.43z"/>
		</g>
		<g id="layer1_10_" transform="translate(-251.59 -314.95)">
			<path id="path3807_10_" d="M727.143-248.872l4.447-4.447l4.447,4.447l-4.447,4.447L727.143-248.872z M815.412-169.497
				l4.447,4.447l-4.447,4.447l-4.447-4.447L815.412-169.497z M736.037-81.228l-4.447,4.447l-4.447-4.447l4.447-4.447L736.037-81.228
				z M647.768-160.603l-4.447-4.447l4.447-4.447l4.447,4.447L647.768-160.603z M783.784-201.267h18.749l0.121,19.007l8.22,8.219
				l2.301-2.301l0,0l-7.173-7.171l-0.052-21.035l-20.913-0.066l-6.941-6.943l-6.943-6.941l-0.066-20.913l-21.035-0.052l-7.171-7.173
				l0,0l-2.301,2.301l8.219,8.22l19.007,0.121v18.749l7.989,7.988L783.784-201.267z M767.807-112.856v18.749L748.8-93.985
				l-8.219,8.22l2.301,2.301l0,0l7.171-7.173l21.035-0.052l0.066-20.913l6.943-6.941l6.941-6.943l20.913-0.066l0.052-21.035
				l7.173-7.171l0,0l-2.301-2.301l-8.22,8.219l-0.121,19.007h-18.749l-7.988,7.989L767.807-112.856z M679.396-128.833h-18.749
				l-0.121-19.007l-8.22-8.219l-2.301,2.301l0,0l7.173,7.171l0.052,21.035l20.913,0.066l6.941,6.943l6.943,6.941l0.066,20.913
				l21.035,0.052l7.171,7.173l0,0l2.301-2.301l-8.219-8.22l-19.007-0.121v-18.749l-7.989-7.989L679.396-128.833z M695.373-217.244
				v-18.749l19.007-0.121l8.219-8.22l-2.301-2.301l0,0l-7.171,7.173l-21.035,0.052l-0.066,20.913l-6.943,6.941l-6.941,6.943
				l-20.913,0.066l-0.052,21.035l-7.173,7.171l0,0l2.301,2.301l8.22-8.219l0.121-19.007h18.749l7.988-7.989L695.373-217.244z
				 M724.837-251.179l-10.457-10.457h-44.527v34.85h-34.85v44.527l10.457,10.457l-6.756,6.753l6.756,6.753l-10.457,10.457v44.527
				h34.85v34.85h44.527l10.457-10.457l6.753,6.756l6.753-6.756l10.457,10.457h44.527v-34.85h34.85v-44.527l-10.457-10.457
				l6.756-6.753l-6.756-6.753l10.457-10.457v-44.527h-34.85v-34.85h-44.527l-10.457,10.457l-6.753-6.756L724.837-251.179z
				 M831.59-230.169l-0.038,49.278l-9.233,9.113l6.732,6.728l-6.732,6.728l9.233,9.113l0.038,49.278l-34.884-0.003l0.003,34.884
				l-49.278-0.038l-9.113-9.233l-6.728,6.732l-6.728-6.732l-9.113,9.233l-49.278,0.038l0.003-34.884l-34.884,0.003l0.038-49.278
				l9.233-9.113l-6.732-6.728l6.732-6.728l-9.233-9.113l-0.038-49.278l34.884,0.003l-0.003-34.884l49.278,0.038l9.113,9.233
				l6.728-6.732l6.728,6.732l9.113-9.233l49.278-0.038l-0.003,34.884L831.59-230.169z M724.909-242.023l-9.165,9.17h-17.111v16.974
				l-8.939,8.934l-8.934,8.939h-16.974v17.111l-9.169,9.165l6.681,6.681l-6.681,6.681l9.169,9.165v17.111h16.974l8.934,8.939
				l8.939,8.934v16.974h17.111l9.165,9.17l6.681-6.681l6.681,6.681l9.165-9.17h17.111v-16.974l8.939-8.934l8.934-8.939h16.974
				v-17.111l9.169-9.165l-6.681-6.681l6.681-6.681l-9.169-9.165v-17.111h-16.974l-8.934-8.939l-8.939-8.934v-16.974h-17.111
				l-9.165-9.17l-6.681,6.681L724.909-242.023z M824.9-223.43L824.9-223.43l0.096,39.747l-18.618,18.633l18.618,18.633
				l-0.096,39.747l0,0l-34.773,0.157L789.97-71.74l0,0l-39.747,0.096L731.59-90.262l-18.633,18.618l-39.747-0.096l0,0l-0.157-34.773
				l-34.773-0.157l0,0l-0.096-39.747l18.618-18.633l-18.618-18.633l0.096-39.747l0,0l34.773-0.157l0.157-34.773l0,0l39.747-0.096
				l18.633,18.618l18.633-18.618l39.747,0.096l0,0l0.157,34.773L824.9-223.43z"/>
		</g>
		<g id="layer1_9_" transform="translate(-251.59 -314.95)">
			<path id="path3807_9_" d="M537.143-248.872l4.447-4.447l4.447,4.447l-4.447,4.447L537.143-248.872z M625.412-169.497l4.447,4.447
				l-4.447,4.447l-4.447-4.447L625.412-169.497z M546.037-81.228l-4.447,4.447l-4.447-4.447l4.447-4.447L546.037-81.228z
				 M457.768-160.603l-4.447-4.447l4.447-4.447l4.447,4.447L457.768-160.603z M593.784-201.267h18.749l0.121,19.007l8.22,8.219
				l2.301-2.301l0,0l-7.173-7.171l-0.052-21.035l-20.913-0.066l-6.941-6.943l-6.943-6.941l-0.066-20.913l-21.035-0.052l-7.171-7.173
				l0,0l-2.301,2.301l8.219,8.22l19.007,0.121v18.749l7.989,7.988L593.784-201.267z M577.807-112.856v18.749L558.8-93.985
				l-8.219,8.22l2.301,2.301l0,0l7.171-7.173l21.035-0.052l0.066-20.913l6.943-6.941l6.941-6.943l20.913-0.066l0.052-21.035
				l7.173-7.171l0,0l-2.301-2.301l-8.22,8.219l-0.121,19.007h-18.749l-7.988,7.989L577.807-112.856z M489.396-128.833h-18.749
				l-0.121-19.007l-8.22-8.219l-2.301,2.301l0,0l7.173,7.171l0.052,21.035l20.913,0.066l6.941,6.943l6.943,6.941l0.066,20.913
				l21.035,0.052l7.171,7.173l0,0l2.301-2.301l-8.219-8.22l-19.007-0.121v-18.749l-7.989-7.989L489.396-128.833z M505.373-217.244
				v-18.749l19.007-0.121l8.219-8.22l-2.301-2.301l0,0l-7.171,7.173l-21.035,0.052l-0.066,20.913l-6.943,6.941l-6.941,6.943
				l-20.913,0.066l-0.052,21.035l-7.173,7.171l0,0l2.301,2.301l8.22-8.219l0.121-19.007h18.749l7.988-7.989L505.373-217.244z
				 M534.837-251.179l-10.457-10.457h-44.527v34.85h-34.85v44.527l10.457,10.457l-6.756,6.753l6.756,6.753l-10.457,10.457v44.527
				h34.85v34.85h44.527l10.457-10.457l6.753,6.756l6.753-6.756l10.457,10.457h44.527v-34.85h34.85v-44.527l-10.457-10.457
				l6.756-6.753l-6.756-6.753l10.457-10.457v-44.527h-34.85v-34.85h-44.527l-10.457,10.457l-6.753-6.756L534.837-251.179z
				 M641.59-230.169l-0.038,49.278l-9.233,9.113l6.732,6.728l-6.732,6.728l9.233,9.113l0.038,49.278l-34.884-0.003l0.003,34.884
				l-49.278-0.038l-9.113-9.233l-6.728,6.732l-6.728-6.732l-9.113,9.233l-49.278,0.038l0.003-34.884l-34.884,0.003l0.038-49.278
				l9.233-9.113l-6.732-6.728l6.732-6.728l-9.233-9.113l-0.038-49.278l34.884,0.003l-0.003-34.884l49.278,0.038l9.113,9.233
				l6.728-6.732l6.728,6.732l9.113-9.233l49.278-0.038l-0.003,34.884L641.59-230.169z M534.909-242.023l-9.165,9.17h-17.111v16.974
				l-8.939,8.934l-8.934,8.939h-16.974v17.111l-9.17,9.165l6.681,6.681l-6.681,6.681l9.17,9.165v17.111h16.974l8.934,8.939
				l8.939,8.934v16.974h17.111l9.165,9.17l6.681-6.681l6.681,6.681l9.165-9.17h17.111v-16.974l8.939-8.934l8.934-8.939h16.974
				v-17.111l9.169-9.165l-6.681-6.681l6.681-6.681l-9.169-9.165v-17.111h-16.974l-8.934-8.939l-8.939-8.934v-16.974h-17.111
				l-9.165-9.17l-6.681,6.681L534.909-242.023z M634.9-223.43L634.9-223.43l0.096,39.747l-18.618,18.633l18.618,18.633
				l-0.096,39.747l0,0l-34.773,0.157L599.97-71.74l0,0l-39.747,0.096L541.59-90.262l-18.633,18.618l-39.747-0.096l0,0l-0.157-34.773
				l-34.773-0.157l0,0l-0.096-39.747l18.618-18.633l-18.618-18.633l0.096-39.747l0,0l34.773-0.157l0.157-34.773l0,0l39.747-0.096
				l18.633,18.618l18.633-18.618l39.747,0.096l0,0l0.157,34.773L634.9-223.43z"/>
		</g>
		<g id="layer1_4_" transform="translate(-251.59 -314.95)">
			<path id="path3807_4_" d="M347.143-248.872l4.447-4.447l4.447,4.447l-4.447,4.447L347.143-248.872z M435.412-169.497l4.447,4.447
				l-4.447,4.447l-4.447-4.447L435.412-169.497z M356.037-81.228l-4.447,4.447l-4.447-4.447l4.447-4.447L356.037-81.228z
				 M267.768-160.603l-4.447-4.447l4.447-4.447l4.447,4.447L267.768-160.603z M403.784-201.267h18.749l0.121,19.007l8.22,8.219
				l2.301-2.301l0,0l-7.173-7.171l-0.052-21.035l-20.913-0.066l-6.941-6.943l-6.943-6.941l-0.066-20.913l-21.035-0.052l-7.171-7.173
				l0,0l-2.301,2.301l8.219,8.22l19.007,0.121v18.749l7.989,7.988L403.784-201.267z M387.807-112.856v18.749L368.8-93.985
				l-8.219,8.22l2.301,2.301l0,0l7.171-7.173l21.035-0.052l0.066-20.913l6.943-6.941l6.941-6.943l20.913-0.066l0.052-21.035
				l7.173-7.171l0,0l-2.301-2.301l-8.22,8.219l-0.121,19.007h-18.749l-7.988,7.989L387.807-112.856z M299.396-128.833h-18.749
				l-0.121-19.007l-8.22-8.219l-2.301,2.301l0,0l7.173,7.171l0.052,21.035l20.913,0.066l6.941,6.943l6.943,6.941l0.066,20.913
				l21.035,0.052l7.171,7.173l0,0l2.301-2.301l-8.219-8.22l-19.007-0.121v-18.749l-7.989-7.989L299.396-128.833z M315.373-217.244
				v-18.749l19.007-0.121l8.219-8.22l-2.301-2.301l0,0l-7.171,7.173l-21.035,0.052l-0.066,20.913l-6.943,6.941l-6.941,6.943
				l-20.913,0.066l-0.052,21.035l-7.173,7.171l0,0l2.301,2.301l8.22-8.219l0.121-19.007h18.749l7.988-7.989L315.373-217.244z
				 M344.837-251.179l-10.457-10.457h-44.527v34.85h-34.85v44.527l10.457,10.457l-6.756,6.753l6.756,6.753l-10.457,10.457v44.527
				h34.85v34.85h44.527l10.457-10.457l6.753,6.756l6.753-6.756L368.8-68.464h44.527v-34.85h34.85v-44.527l-10.457-10.457
				l6.756-6.753l-6.756-6.753l10.457-10.457v-44.527h-34.85v-34.85H368.8l-10.457,10.457l-6.753-6.756L344.837-251.179z
				 M451.59-230.169l-0.038,49.278l-9.233,9.113l6.732,6.728l-6.732,6.728l9.233,9.113l0.038,49.278l-34.884-0.003l0.003,34.884
				l-49.278-0.038l-9.113-9.233l-6.728,6.732l-6.728-6.732l-9.113,9.233l-49.278,0.038l0.003-34.884l-34.884,0.003l0.038-49.278
				l9.233-9.113l-6.732-6.728l6.732-6.728l-9.233-9.113l-0.038-49.278l34.884,0.003l-0.003-34.884l49.278,0.038l9.113,9.233
				l6.728-6.732l6.728,6.732l9.113-9.233l49.278-0.038l-0.003,34.884L451.59-230.169z M344.909-242.023l-9.165,9.17h-17.111v16.974
				l-8.939,8.934l-8.934,8.939h-16.974v17.111l-9.17,9.165l6.681,6.681l-6.681,6.681l9.17,9.165v17.111h16.974l8.934,8.939
				l8.939,8.934v16.974h17.111l9.165,9.17l6.681-6.681l6.681,6.681l9.165-9.17h17.111v-16.974l8.939-8.934l8.934-8.939h16.974
				v-17.111l9.17-9.165l-6.681-6.681l6.681-6.681l-9.17-9.165v-17.111h-16.974l-8.934-8.939l-8.939-8.934v-16.974h-17.111
				l-9.165-9.17l-6.681,6.681L344.909-242.023z M444.9-223.43L444.9-223.43l0.096,39.747l-18.618,18.633l18.618,18.633
				l-0.096,39.747l0,0l-34.773,0.157L409.97-71.74l0,0l-39.747,0.096L351.59-90.262l-18.633,18.618l-39.747-0.096l0,0l-0.157-34.773
				l-34.773-0.157l0,0l-0.096-39.747l18.618-18.633l-18.618-18.633l0.096-39.747l0,0l34.773-0.157l0.157-34.773l0,0l39.747-0.096
				l18.633,18.618l18.633-18.618l39.747,0.096l0,0l0.157,34.773L444.9-223.43z"/>
		</g>
	</g>
</pattern>
<rect fill="url(#New_Pattern)" width="2560" height="1600"/>
</svg>
